<svg width="172" height="56" viewBox="0 0 172 56" fill="none" xmlns="http://www.w3.org/2000/svg">
<path d="M3.77817 6.67457H8.81573C9.98183 6.67457 11.0546 6.79118 12.0342 7.0244C13.0137 7.25763 13.7989 7.66965 14.3897 8.26047C14.9961 8.83575 15.2993 9.6598 15.2993 10.7326C15.2993 11.4789 15.1515 12.1008 14.8561 12.5984C14.5607 13.0959 14.1798 13.4691 13.7134 13.7178C13.2625 13.9666 12.7727 14.0988 12.2441 14.1143C13.0059 14.1454 13.7056 14.332 14.3431 14.674C14.9961 15.0161 15.5169 15.4981 15.9056 16.12C16.2943 16.7264 16.4887 17.4649 16.4887 18.3356C16.4887 19.4084 16.1699 20.2946 15.5325 20.9943C14.9106 21.6784 14.0476 22.1837 12.9437 22.5102C11.8554 22.8367 10.6038 23 9.18888 23H7.06658C7.06658 23 7.06658 22.8989 7.06658 22.6968C7.08212 22.4947 7.0899 22.3003 7.0899 22.1138C7.0899 21.9116 7.0899 21.8106 7.0899 21.8106H7.57966C8.20158 21.8106 8.76909 21.6862 9.28217 21.4374C9.8108 21.1887 10.2306 20.7844 10.5416 20.2247C10.8525 19.6649 11.008 18.9186 11.008 17.9858C11.008 17.426 10.9458 16.9285 10.8214 16.4932C10.697 16.0423 10.5105 15.6613 10.2617 15.3504C10.0285 15.0239 9.72529 14.7829 9.35214 14.6274C8.99453 14.4564 8.56696 14.3708 8.06942 14.3708V14.1609C8.44258 14.1609 8.76909 14.091 9.04895 13.9511C9.32881 13.8111 9.55426 13.6168 9.72529 13.368C9.91187 13.1037 10.0518 12.7849 10.1451 12.4118C10.2384 12.0231 10.285 11.5878 10.285 11.1058C10.285 10.2662 10.1606 9.61315 9.91187 9.14671C9.67864 8.66472 9.35991 8.33044 8.95566 8.14386C8.55141 7.94174 8.09275 7.84068 7.57966 7.84068H4.01139C4.01139 7.82513 3.98807 7.72407 3.94142 7.53749C3.91033 7.35091 3.87146 7.16434 3.82481 6.97776C3.79372 6.77564 3.77817 6.67457 3.77817 6.67457ZM7.27648 6.67457V23H2.49546V6.67457H7.27648ZM2.56542 21.2975V23H0.699661V22.7668C0.730757 22.7668 0.785175 22.7668 0.862915 22.7668C0.940655 22.7668 0.9873 22.7668 1.00285 22.7668C1.4071 22.7668 1.74915 22.6268 2.02902 22.347C2.32443 22.0516 2.47991 21.7017 2.49546 21.2975H2.56542ZM2.56542 8.37708H2.49546C2.47991 7.97283 2.32443 7.63078 2.02902 7.35091C1.74915 7.0555 1.4071 6.90779 1.00285 6.90779C0.9873 6.90779 0.940655 6.90779 0.862915 6.90779C0.785175 6.90779 0.730757 6.90779 0.699661 6.90779V6.67457H2.56542V8.37708ZM24.3353 6.67457V23H19.5543V6.67457H24.3353ZM19.6242 21.2975V23H17.7585V22.7668C17.7585 22.7668 17.8051 22.7668 17.8984 22.7668C18.0072 22.7668 18.0616 22.7668 18.0616 22.7668C18.4659 22.7668 18.8079 22.6268 19.0878 22.347C19.3832 22.0516 19.5387 21.7017 19.5543 21.2975H19.6242ZM19.6242 8.37708H19.5543C19.5387 7.97283 19.3832 7.63078 19.0878 7.35091C18.8079 7.0555 18.4659 6.90779 18.0616 6.90779C18.0616 6.90779 18.0072 6.90779 17.8984 6.90779C17.8051 6.90779 17.7585 6.90779 17.7585 6.90779V6.67457H19.6242V8.37708ZM24.2653 21.2975H24.3353C24.3508 21.7017 24.4985 22.0516 24.7784 22.347C25.0738 22.6268 25.4236 22.7668 25.8279 22.7668C25.8279 22.7668 25.8745 22.7668 25.9678 22.7668C26.0611 22.7668 26.1155 22.7668 26.1311 22.7668V23H24.2653V21.2975ZM24.2653 8.37708V6.67457H26.1311V6.90779C26.1155 6.90779 26.0611 6.90779 25.9678 6.90779C25.8745 6.90779 25.8279 6.90779 25.8279 6.90779C25.4236 6.90779 25.0738 7.0555 24.7784 7.35091C24.4985 7.63078 24.3508 7.97283 24.3353 8.37708H24.2653ZM33.6634 6.34807C34.0054 6.34807 34.4641 6.36361 35.0394 6.39471C35.6146 6.42581 36.2132 6.47245 36.8352 6.53464C37.4571 6.58129 38.0013 6.6357 38.4677 6.6979C38.9341 6.74454 39.2373 6.79896 39.3773 6.86115L38.9108 10.3828H38.6776C38.6776 9.52764 38.3433 8.83575 37.6747 8.30712C37.0217 7.77848 36.1199 7.51417 34.9694 7.51417C34.021 7.51417 33.2669 7.70074 32.7072 8.0739C32.1474 8.4315 31.8442 8.89794 31.7976 9.47322C31.7509 10.0329 31.9375 10.4683 32.3573 10.7793C32.7927 11.0902 33.298 11.3779 33.8733 11.6422L38.2345 13.6712C39.1052 14.0599 39.7893 14.6274 40.2868 15.3737C40.7843 16.12 40.9942 17.0607 40.9165 18.1957C40.8077 19.8593 40.108 21.1342 38.8175 22.0205C37.5426 22.8912 35.8012 23.3265 33.5934 23.3265C32.6916 23.3265 31.8753 23.2565 31.1446 23.1166C30.4138 22.9767 29.7841 22.7979 29.2555 22.5802C28.7424 22.347 28.3459 22.0904 28.0661 21.8106C27.895 21.4219 27.8251 20.9477 27.8562 20.3879C27.8873 19.8282 27.9883 19.2762 28.1594 18.7321C28.3459 18.1723 28.5636 17.7292 28.8124 17.4027H29.0223C28.9756 18.2112 29.1467 18.9808 29.5354 19.7116C29.9241 20.4424 30.5071 21.0332 31.2845 21.4841C32.0619 21.935 32.9948 22.1604 34.0831 22.1604C35.2026 22.1604 36.0267 21.9272 36.5553 21.4607C37.0995 20.9943 37.3716 20.4657 37.3716 19.8748C37.3716 19.3773 37.1772 18.9264 36.7885 18.5222C36.4154 18.1179 35.7857 17.7137 34.8994 17.3094L31.0979 15.5369C30.0251 15.0394 29.2399 14.3553 28.7424 13.4846C28.2604 12.6139 28.0894 11.6266 28.2293 10.5227C28.3382 9.62092 28.6258 8.85907 29.0922 8.23715C29.5587 7.61523 30.1728 7.14879 30.9347 6.83783C31.7121 6.51132 32.6216 6.34807 33.6634 6.34807ZM39.4239 6.58129L39.3539 7.07105H35.9722V6.58129H39.4239ZM52.38 6.74454V23H47.599V6.74454H52.38ZM57.9073 6.65125V7.81735H42.0717V6.65125H57.9073ZM57.9073 7.74739V11.0358L57.6741 11.0125V10.8492C57.6741 9.91634 57.4098 9.18558 56.8812 8.65695C56.3525 8.11277 55.614 7.8329 54.6656 7.81735V7.74739H57.9073ZM57.9073 6.23146V6.90779L55.062 6.65125C55.4041 6.65125 55.7617 6.62793 56.1349 6.58129C56.5236 6.53464 56.8812 6.48022 57.2077 6.41803C57.5342 6.35584 57.7674 6.29365 57.9073 6.23146ZM47.669 21.2975V23H45.8032V22.7668C45.8032 22.7668 45.8498 22.7668 45.9431 22.7668C46.052 22.7668 46.1064 22.7668 46.1064 22.7668C46.5106 22.7668 46.8527 22.6268 47.1326 22.347C47.428 22.0516 47.5834 21.7017 47.599 21.2975H47.669ZM52.31 21.2975H52.38C52.3956 21.7017 52.5433 22.0516 52.8231 22.347C53.1185 22.6268 53.4684 22.7668 53.8726 22.7668C53.8726 22.7668 53.9193 22.7668 54.0126 22.7668C54.1214 22.7668 54.1758 22.7668 54.1758 22.7668V23H52.31V21.2975ZM45.3134 7.74739V7.81735C44.365 7.8329 43.6265 8.11277 43.0978 8.65695C42.5692 9.18558 42.3049 9.91634 42.3049 10.8492V11.0125L42.0717 11.0358V7.74739H45.3134ZM42.0717 6.23146C42.2272 6.29365 42.4604 6.35584 42.7713 6.41803C43.0978 6.48022 43.4554 6.53464 43.8442 6.58129C44.2329 6.62793 44.5905 6.65125 44.917 6.65125L42.0717 6.90779V6.23146ZM65.2361 6.67457H68.0581C68.7577 6.67457 69.4729 6.73677 70.2037 6.86115C70.9345 6.98554 71.603 7.21098 72.2094 7.53749C72.8158 7.84845 73.3055 8.29157 73.6787 8.86685C74.0518 9.44212 74.2384 10.1807 74.2384 11.0824C74.2384 11.6733 74.1296 12.2874 73.9119 12.9249C73.6942 13.5468 73.3133 14.0988 72.7691 14.5807C72.2405 15.0472 71.4864 15.3581 70.5069 15.5136C71.1599 15.7002 71.7274 16.0189 72.2094 16.4698C72.6914 16.9207 73.0723 17.3794 73.3522 17.8458C73.3833 17.8925 73.461 18.0246 73.5854 18.2423C73.7098 18.46 73.8653 18.7321 74.0518 19.0586C74.254 19.3695 74.4639 19.696 74.6815 20.0381C74.8992 20.3802 75.1169 20.6989 75.3345 20.9943C75.6921 21.4763 76.0031 21.8417 76.2674 22.0904C76.5317 22.3392 76.7961 22.5102 77.0604 22.6035C77.3402 22.6968 77.6667 22.7512 78.0399 22.7668V23H75.1246C74.1918 23 73.3289 22.9456 72.5359 22.8367C71.743 22.7279 71.0277 22.4869 70.3903 22.1138C69.7684 21.7406 69.2164 21.1498 68.7344 20.3413C68.5634 20.0614 68.4234 19.7816 68.3146 19.5017C68.2058 19.2218 68.1125 18.9497 68.0347 18.6854C67.957 18.4211 67.887 18.1723 67.8248 17.9391C67.7782 17.6903 67.7316 17.4571 67.6849 17.2395C67.6383 17.0062 67.5839 16.7886 67.5217 16.5864C67.3662 16.0267 67.1796 15.6458 66.9619 15.4437C66.7443 15.2415 66.5266 15.1016 66.3089 15.0239V14.7906C66.3711 14.7906 66.4411 14.7906 66.5188 14.7906C66.5966 14.7906 66.651 14.7906 66.6821 14.7906C67.1174 14.7906 67.5061 14.6896 67.8482 14.4875C68.1902 14.2853 68.4779 13.9744 68.7111 13.5546C68.9443 13.1348 69.0998 12.5906 69.1775 11.922C69.1931 11.7976 69.2086 11.6655 69.2242 11.5256C69.2397 11.3701 69.2397 11.1835 69.2242 10.9658C69.162 9.81528 68.8743 9.01455 68.3613 8.56366C67.8637 8.11277 67.2651 7.88732 66.5655 7.88732C66.4877 7.88732 66.3867 7.88732 66.2623 7.88732C66.1379 7.88732 66.0057 7.88732 65.8658 7.88732C65.7259 7.88732 65.5937 7.88732 65.4693 7.88732C65.4693 7.88732 65.446 7.78626 65.3994 7.58413C65.3683 7.38201 65.3294 7.17989 65.2827 6.97776C65.2517 6.77564 65.2361 6.67457 65.2361 6.67457ZM65.5393 6.67457V23H60.735V6.67457H65.5393ZM60.8049 21.2975V23H58.9392V22.7668C58.9703 22.7668 59.0247 22.7668 59.1024 22.7668C59.1801 22.7668 59.2268 22.7668 59.2423 22.7668C59.6466 22.7668 59.9886 22.6268 60.2685 22.347C60.5639 22.0516 60.7194 21.7017 60.735 21.2975H60.8049ZM60.8049 8.37708H60.735C60.7194 7.97283 60.5639 7.63078 60.2685 7.35091C59.9886 7.0555 59.6466 6.90779 59.2423 6.90779C59.2268 6.90779 59.1801 6.90779 59.1024 6.90779C59.0247 6.90779 58.9703 6.90779 58.9392 6.90779V6.67457H60.8049V8.37708ZM65.4693 21.2975H65.5393C65.5393 21.7017 65.687 22.0516 65.9824 22.347C66.2778 22.6268 66.6277 22.7668 67.0319 22.7668C67.063 22.7668 67.1096 22.7668 67.1718 22.7668C67.2496 22.7668 67.2962 22.7668 67.3118 22.7668V23H65.4693V21.2975ZM86.6559 6.34807C88.6616 6.34807 90.3875 6.69012 91.8334 7.37424C93.2949 8.0428 94.4144 9.00678 95.1918 10.2662C95.9692 11.5256 96.3579 13.0493 96.3579 14.8373C96.3579 16.6098 95.9692 18.1335 95.1918 19.4084C94.4144 20.6678 93.2949 21.6395 91.8334 22.3237C90.3875 22.9922 88.6616 23.3265 86.6559 23.3265C84.6502 23.3265 82.9244 22.9922 81.4784 22.3237C80.0325 21.6395 78.9208 20.6678 78.1434 19.4084C77.366 18.149 76.9773 16.6253 76.9773 14.8373C76.9773 13.0648 77.366 11.5489 78.1434 10.2895C78.9208 9.01455 80.0325 8.0428 81.4784 7.37424C82.9244 6.69012 84.6502 6.34807 86.6559 6.34807ZM86.6559 22.1604C87.6199 22.1604 88.4362 21.8728 89.1047 21.2975C89.7889 20.7067 90.3097 19.8671 90.6673 18.7787C91.0249 17.6903 91.2037 16.3765 91.2037 14.8373C91.2037 13.298 91.0249 11.9842 90.6673 10.8959C90.3097 9.8075 89.7889 8.97568 89.1047 8.40041C88.4362 7.80958 87.6199 7.51417 86.6559 7.51417C85.7075 7.51417 84.8912 7.80958 84.2071 8.40041C83.5386 8.97568 83.0255 9.8075 82.6679 10.8959C82.3103 11.9842 82.1315 13.298 82.1315 14.8373C82.1315 16.3765 82.3103 17.6903 82.6679 18.7787C83.0255 19.8671 83.5386 20.7067 84.2071 21.2975C84.8912 21.8728 85.7075 22.1604 86.6559 22.1604ZM106.883 6.67457H111.92C113.086 6.67457 114.159 6.79118 115.139 7.0244C116.118 7.25763 116.903 7.66965 117.494 8.26047C118.1 8.83575 118.404 9.6598 118.404 10.7326C118.404 11.4789 118.256 12.1008 117.96 12.5984C117.665 13.0959 117.284 13.4691 116.818 13.7178C116.367 13.9666 115.877 14.0988 115.348 14.1143C116.11 14.1454 116.81 14.332 117.447 14.674C118.1 15.0161 118.621 15.4981 119.01 16.12C119.399 16.7264 119.593 17.4649 119.593 18.3356C119.593 19.4084 119.274 20.2946 118.637 20.9943C118.015 21.6784 117.152 22.1837 116.048 22.5102C114.96 22.8367 113.708 23 112.293 23H110.171C110.171 23 110.171 22.8989 110.171 22.6968C110.186 22.4947 110.194 22.3003 110.194 22.1138C110.194 21.9116 110.194 21.8106 110.194 21.8106H110.684C111.306 21.8106 111.873 21.6862 112.387 21.4374C112.915 21.1887 113.335 20.7844 113.646 20.2247C113.957 19.6649 114.112 18.9186 114.112 17.9858C114.112 17.426 114.05 16.9285 113.926 16.4932C113.801 16.0423 113.615 15.6613 113.366 15.3504C113.133 15.0239 112.83 14.7829 112.456 14.6274C112.099 14.4564 111.671 14.3708 111.174 14.3708V14.1609C111.547 14.1609 111.873 14.091 112.153 13.9511C112.433 13.8111 112.659 13.6168 112.83 13.368C113.016 13.1037 113.156 12.7849 113.249 12.4118C113.343 12.0231 113.389 11.5878 113.389 11.1058C113.389 10.2662 113.265 9.61315 113.016 9.14671C112.783 8.66472 112.464 8.33044 112.06 8.14386C111.656 7.94174 111.197 7.84068 110.684 7.84068H107.116C107.116 7.82513 107.092 7.72407 107.046 7.53749C107.015 7.35091 106.976 7.16434 106.929 6.97776C106.898 6.77564 106.883 6.67457 106.883 6.67457ZM110.381 6.67457V23H105.6V6.67457H110.381ZM105.67 21.2975V23H103.804V22.7668C103.835 22.7668 103.89 22.7668 103.967 22.7668C104.045 22.7668 104.092 22.7668 104.107 22.7668C104.511 22.7668 104.853 22.6268 105.133 22.347C105.429 22.0516 105.584 21.7017 105.6 21.2975H105.67ZM105.67 8.37708H105.6C105.584 7.97283 105.429 7.63078 105.133 7.35091C104.853 7.0555 104.511 6.90779 104.107 6.90779C104.092 6.90779 104.045 6.90779 103.967 6.90779C103.89 6.90779 103.835 6.90779 103.804 6.90779V6.67457H105.67V8.37708ZM131 6.34807C133.005 6.34807 134.731 6.69012 136.177 7.37424C137.639 8.0428 138.758 9.00678 139.536 10.2662C140.313 11.5256 140.702 13.0493 140.702 14.8373C140.702 16.6098 140.313 18.1335 139.536 19.4084C138.758 20.6678 137.639 21.6395 136.177 22.3237C134.731 22.9922 133.005 23.3265 131 23.3265C128.994 23.3265 127.268 22.9922 125.822 22.3237C124.376 21.6395 123.265 20.6678 122.487 19.4084C121.71 18.149 121.321 16.6253 121.321 14.8373C121.321 13.0648 121.71 11.5489 122.487 10.2895C123.265 9.01455 124.376 8.0428 125.822 7.37424C127.268 6.69012 128.994 6.34807 131 6.34807ZM131 22.1604C131.964 22.1604 132.78 21.8728 133.448 21.2975C134.133 20.7067 134.653 19.8671 135.011 18.7787C135.369 17.6903 135.547 16.3765 135.547 14.8373C135.547 13.298 135.369 11.9842 135.011 10.8959C134.653 9.8075 134.133 8.97568 133.448 8.40041C132.78 7.80958 131.964 7.51417 131 7.51417C130.051 7.51417 129.235 7.80958 128.551 8.40041C127.882 8.97568 127.369 9.8075 127.012 10.8959C126.654 11.9842 126.475 13.298 126.475 14.8373C126.475 16.3765 126.654 17.6903 127.012 18.7787C127.369 19.8671 127.882 20.7067 128.551 21.2975C129.235 21.8728 130.051 22.1604 131 22.1604ZM148.474 6.34807C148.816 6.34807 149.275 6.36361 149.85 6.39471C150.426 6.42581 151.024 6.47245 151.646 6.53464C152.268 6.58129 152.812 6.6357 153.279 6.6979C153.745 6.74454 154.048 6.79896 154.188 6.86115L153.722 10.3828H153.489C153.489 9.52764 153.154 8.83575 152.486 8.30712C151.833 7.77848 150.931 7.51417 149.78 7.51417C148.832 7.51417 148.078 7.70074 147.518 8.0739C146.958 8.4315 146.655 8.89794 146.609 9.47322C146.562 10.0329 146.748 10.4683 147.168 10.7793C147.604 11.0902 148.109 11.3779 148.684 11.6422L153.045 13.6712C153.916 14.0599 154.6 14.6274 155.098 15.3737C155.595 16.12 155.805 17.0607 155.727 18.1957C155.619 19.8593 154.919 21.1342 153.628 22.0205C152.353 22.8912 150.612 23.3265 148.404 23.3265C147.503 23.3265 146.686 23.2565 145.955 23.1166C145.225 22.9767 144.595 22.7979 144.066 22.5802C143.553 22.347 143.157 22.0904 142.877 21.8106C142.706 21.4219 142.636 20.9477 142.667 20.3879C142.698 19.8282 142.799 19.2762 142.97 18.7321C143.157 18.1723 143.375 17.7292 143.623 17.4027H143.833C143.787 18.2112 143.958 18.9808 144.346 19.7116C144.735 20.4424 145.318 21.0332 146.095 21.4841C146.873 21.935 147.806 22.1604 148.894 22.1604C150.014 22.1604 150.838 21.9272 151.366 21.4607C151.91 20.9943 152.182 20.4657 152.182 19.8748C152.182 19.3773 151.988 18.9264 151.599 18.5222C151.226 18.1179 150.597 17.7137 149.71 17.3094L145.909 15.5369C144.836 15.0394 144.051 14.3553 143.553 13.4846C143.071 12.6139 142.9 11.6266 143.04 10.5227C143.149 9.62092 143.437 8.85907 143.903 8.23715C144.37 7.61523 144.984 7.14879 145.746 6.83783C146.523 6.51132 147.433 6.34807 148.474 6.34807ZM154.235 6.58129L154.165 7.07105H150.783V6.58129H154.235ZM163.506 6.34807C163.848 6.34807 164.307 6.36361 164.882 6.39471C165.457 6.42581 166.056 6.47245 166.678 6.53464C167.3 6.58129 167.844 6.6357 168.31 6.6979C168.777 6.74454 169.08 6.79896 169.22 6.86115L168.754 10.3828H168.52C168.52 9.52764 168.186 8.83575 167.517 8.30712C166.864 7.77848 165.963 7.51417 164.812 7.51417C163.864 7.51417 163.11 7.70074 162.55 8.0739C161.99 8.4315 161.687 8.89794 161.64 9.47322C161.594 10.0329 161.78 10.4683 162.2 10.7793C162.635 11.0902 163.141 11.3779 163.716 11.6422L168.077 13.6712C168.948 14.0599 169.632 14.6274 170.13 15.3737C170.627 16.12 170.837 17.0607 170.759 18.1957C170.65 19.8593 169.951 21.1342 168.66 22.0205C167.385 22.8912 165.644 23.3265 163.436 23.3265C162.534 23.3265 161.718 23.2565 160.987 23.1166C160.257 22.9767 159.627 22.7979 159.098 22.5802C158.585 22.347 158.189 22.0904 157.909 21.8106C157.738 21.4219 157.668 20.9477 157.699 20.3879C157.73 19.8282 157.831 19.2762 158.002 18.7321C158.189 18.1723 158.406 17.7292 158.655 17.4027H158.865C158.818 18.2112 158.989 18.9808 159.378 19.7116C159.767 20.4424 160.35 21.0332 161.127 21.4841C161.905 21.935 162.837 22.1604 163.926 22.1604C165.045 22.1604 165.869 21.9272 166.398 21.4607C166.942 20.9943 167.214 20.4657 167.214 19.8748C167.214 19.3773 167.02 18.9264 166.631 18.5222C166.258 18.1179 165.628 17.7137 164.742 17.3094L160.941 15.5369C159.868 15.0394 159.083 14.3553 158.585 13.4846C158.103 12.6139 157.932 11.6266 158.072 10.5227C158.181 9.62092 158.468 8.85907 158.935 8.23715C159.401 7.61523 160.016 7.14879 160.777 6.83783C161.555 6.51132 162.464 6.34807 163.506 6.34807ZM169.267 6.58129L169.197 7.07105H165.815V6.58129H169.267Z" fill="#151515"/>
<path d="M4.53031 36.0948H6.78671C7.31146 36.0948 7.82454 36.1531 8.32597 36.2697C8.82739 36.3863 9.27051 36.5729 9.65532 36.8294C10.0518 37.086 10.3666 37.4242 10.5999 37.844C10.8331 38.2637 10.9497 38.7827 10.9497 39.4007C10.9497 39.8905 10.8447 40.3802 10.6348 40.87C10.4366 41.3481 10.1276 41.7621 9.7078 42.1119C9.288 42.4501 8.74576 42.6541 8.08109 42.7241C8.45424 42.8407 8.79241 43.0506 9.09559 43.3538C9.41044 43.657 9.66698 43.9602 9.86522 44.2633C9.87688 44.2867 9.94102 44.3916 10.0576 44.5782C10.1859 44.7648 10.3375 44.998 10.5124 45.2778C10.699 45.5461 10.8914 45.8201 11.0896 46.1C11.2879 46.3798 11.4686 46.6247 11.6319 46.8346C11.8884 47.1494 12.1216 47.406 12.3315 47.6042C12.5414 47.7908 12.763 47.9307 12.9962 48.024C13.2294 48.1056 13.4976 48.1523 13.8008 48.164V48.3389H12.0866C11.4569 48.3389 10.8856 48.2864 10.3725 48.1814C9.85939 48.0648 9.40461 47.8724 9.00814 47.6042C8.61166 47.336 8.26766 46.9745 7.97614 46.5197C7.88285 46.3798 7.7779 46.2049 7.66129 45.995C7.55634 45.7734 7.44556 45.5402 7.32895 45.2953C7.21234 45.0505 7.09573 44.8172 6.97912 44.5957C6.87417 44.3625 6.78088 44.1526 6.69925 43.966C6.61763 43.7794 6.55932 43.6336 6.52434 43.5287C6.37275 43.1555 6.192 42.8757 5.9821 42.6891C5.78386 42.5025 5.56814 42.3917 5.33492 42.3568V42.1818C5.3699 42.1818 5.43986 42.1818 5.54481 42.1818C5.64976 42.1818 5.76054 42.1818 5.87715 42.1818C6.192 42.1818 6.49519 42.1177 6.78671 41.9894C7.0899 41.8612 7.3581 41.6513 7.59132 41.3597C7.82454 41.0682 7.9878 40.6659 8.08109 40.1528C8.10441 40.0479 8.1219 39.9254 8.13356 39.7855C8.15688 39.6456 8.16271 39.4882 8.15105 39.3132C8.11607 38.4736 7.90617 37.8614 7.52136 37.4766C7.13654 37.0802 6.65844 36.8761 6.08705 36.8644C5.9238 36.8528 5.74305 36.8528 5.54481 36.8644C5.35824 36.8644 5.18332 36.8644 5.02007 36.8644C4.86847 36.8644 4.76353 36.8644 4.70522 36.8644C4.70522 36.8528 4.68773 36.7886 4.65275 36.672C4.62942 36.5437 4.60027 36.4155 4.56529 36.2872C4.54197 36.1589 4.53031 36.0948 4.53031 36.0948ZM4.7577 36.0948V48.3389H2.13397V36.0948H4.7577ZM2.18644 47.062V48.3389H0.787119V48.164C0.79878 48.164 0.833763 48.164 0.892068 48.164C0.962034 48.164 1.00285 48.164 1.01451 48.164C1.3177 48.164 1.57424 48.059 1.78414 47.8491C2.0057 47.6275 2.12231 47.3652 2.13397 47.062H2.18644ZM2.18644 37.3717H2.13397C2.12231 37.0685 2.0057 36.812 1.78414 36.6021C1.57424 36.3805 1.3177 36.2697 1.01451 36.2697C1.00285 36.2697 0.962034 36.2697 0.892068 36.2697C0.833763 36.2697 0.79878 36.2697 0.787119 36.2697V36.0948H2.18644V37.3717ZM4.70522 47.062H4.7577C4.7577 47.3652 4.86847 47.6275 5.09003 47.8491C5.31159 48.059 5.57397 48.164 5.87715 48.164C5.90048 48.164 5.94129 48.164 5.99959 48.164C6.0579 48.164 6.08705 48.164 6.08705 48.164V48.3389H4.70522V47.062ZM23.7946 37.844V48.3389H21.2758V37.844H23.7946ZM27.8876 47.6392L28.2899 48.3389H23.7596V47.6392H27.8876ZM27.2929 42.7941V43.4937H23.7596V42.7941H27.2929ZM28.08 37.844V38.5436H23.7596V37.844H28.08ZM29.0071 45.1204L28.3424 48.3389H25.3164L25.8586 47.6392C26.36 47.6392 26.8032 47.5401 27.188 47.3419C27.5845 47.132 27.9226 46.8404 28.2025 46.4673C28.4824 46.0825 28.6981 45.6335 28.8497 45.1204H29.0071ZM27.2929 43.4587V44.998H27.118V44.8581C27.118 44.4732 26.9956 44.1526 26.7507 43.896C26.5175 43.6395 26.1968 43.5054 25.7887 43.4937V43.4587H27.2929ZM27.2929 41.2898V42.829H25.7887V42.7941C26.1968 42.7824 26.5175 42.6483 26.7507 42.3917C26.9956 42.1235 27.118 41.797 27.118 41.4122V41.2898H27.2929ZM28.08 38.5086V40.3627H27.9051V40.2053C27.9051 39.6922 27.7652 39.2899 27.4853 38.9984C27.2171 38.7069 26.8265 38.5553 26.3134 38.5436V38.5086H28.08ZM28.08 37.5816V38.0014L26.2434 37.844C26.5816 37.844 26.9373 37.8148 27.3104 37.7565C27.6836 37.6865 27.9401 37.6282 28.08 37.5816ZM21.3108 47.2369L21.3983 48.3389H20.1039V48.164C20.1039 48.164 20.1389 48.164 20.2089 48.164C20.2788 48.164 20.3196 48.164 20.3313 48.164C20.5878 48.164 20.8036 48.0765 20.9785 47.9016C21.1651 47.715 21.2642 47.4934 21.2758 47.2369H21.3108ZM21.3108 38.9459H21.2758C21.2642 38.6777 21.1651 38.4562 20.9785 38.2812C20.8036 38.1063 20.5878 38.0189 20.3313 38.0189C20.3196 38.0189 20.2788 38.0189 20.2089 38.0189C20.1389 38.0189 20.1039 38.0189 20.1039 38.0189V37.844H21.3983L21.3108 38.9459ZM40.1921 37.6166C40.4253 37.6166 40.7052 37.6282 41.0317 37.6515C41.3699 37.6749 41.7022 37.704 42.0287 37.739C42.3552 37.7623 42.6409 37.7973 42.8858 37.844C43.1423 37.8789 43.3173 37.9139 43.4105 37.9489L43.1832 40.0829H43.0257C43.0257 39.5465 42.8392 39.1208 42.466 38.806C42.0929 38.4911 41.5564 38.3337 40.8568 38.3337C40.2971 38.3337 39.8423 38.4562 39.4924 38.701C39.1543 38.9459 38.9735 39.2724 38.9502 39.6806C38.9269 39.8905 38.9619 40.0829 39.0552 40.2578C39.1601 40.421 39.3 40.5668 39.475 40.6951C39.6615 40.8233 39.8656 40.9516 40.0872 41.0799L42.8333 42.7766C43.2998 43.0098 43.6671 43.348 43.9353 43.7911C44.2035 44.2342 44.3201 44.7706 44.2851 45.4003C44.2501 46.0533 44.0577 46.6189 43.7079 47.097C43.3697 47.5751 42.8975 47.9424 42.2911 48.1989C41.6964 48.4438 40.9909 48.5663 40.1746 48.5663C39.6732 48.5663 39.2068 48.5254 38.7753 48.4438C38.3438 48.3622 37.9707 48.2514 37.6558 48.1115C37.3527 47.9715 37.1194 47.8141 36.9562 47.6392C36.8629 47.406 36.8221 47.1261 36.8337 46.7996C36.8454 46.4614 36.8979 46.1291 36.9912 45.8026C37.0844 45.4644 37.2011 45.1846 37.341 44.963H37.4809C37.4459 45.4877 37.5392 45.9717 37.7608 46.4148C37.994 46.8579 38.3322 47.2136 38.7753 47.4818C39.2184 47.7383 39.749 47.8666 40.367 47.8666C41.0434 47.8666 41.5506 47.7092 41.8888 47.3943C42.227 47.0795 42.396 46.7122 42.396 46.2924C42.396 45.9775 42.2911 45.6976 42.0812 45.4528C41.883 45.1962 41.5506 44.9455 41.0842 44.7006L38.6004 43.1264C38.0173 42.8232 37.5917 42.4209 37.3235 41.9195C37.067 41.4181 36.9737 40.87 37.0436 40.2753C37.1019 39.7155 37.2652 39.2374 37.5334 38.841C37.8133 38.4445 38.1806 38.1413 38.6354 37.9314C39.0901 37.7215 39.6091 37.6166 40.1921 37.6166ZM43.4105 37.774L43.3931 38.0888H41.5215V37.774H43.4105ZM57.9798 37.8964V48.3389H55.4435V37.8964H57.9798ZM61.7929 37.8265V38.5261H51.6478V37.8265H61.7929ZM61.7929 38.4736V40.3277H61.6005V40.1703C61.6122 39.6689 61.4722 39.2724 61.1807 38.9809C60.9008 38.6894 60.5102 38.5378 60.0088 38.5261V38.4736H61.7929ZM61.7929 37.5641V38.0014L59.9388 37.8265C60.1604 37.8265 60.3994 37.8148 60.656 37.7915C60.9125 37.7565 61.1457 37.7215 61.3556 37.6865C61.5655 37.6399 61.7113 37.5991 61.7929 37.5641ZM55.4785 47.2369V48.3389H54.3065V48.164C54.3065 48.164 54.3357 48.164 54.394 48.164C54.464 48.164 54.4989 48.164 54.4989 48.164C54.7555 48.164 54.9712 48.0765 55.1461 47.9016C55.3327 47.715 55.4318 47.4934 55.4435 47.2369H55.4785ZM57.9273 47.2369H57.9798C57.9798 47.4934 58.073 47.715 58.2596 47.9016C58.4462 48.0765 58.6736 48.164 58.9418 48.164C58.9418 48.164 58.9709 48.164 59.0293 48.164C59.0992 48.164 59.1342 48.164 59.1342 48.164V48.3389H57.9273V47.2369ZM53.432 38.4736V38.5261C52.9189 38.5378 52.5224 38.6894 52.2425 38.9809C51.9743 39.2724 51.8402 39.6689 51.8402 40.1703V40.3277H51.6478V38.4736H53.432ZM51.6478 37.5641C51.7528 37.5874 51.9044 37.6224 52.1026 37.669C52.3125 37.7157 52.5399 37.7565 52.7848 37.7915C53.0413 37.8148 53.2745 37.8265 53.4844 37.8265L51.6478 38.0014V37.5641ZM73.0944 37.3717L78.2718 48.2514H75.3158L72.0624 40.5726L73.0944 37.3717ZM69.8059 47.1844C69.6777 47.4993 69.6952 47.7442 69.8584 47.9191C70.0217 48.0823 70.2024 48.164 70.4007 48.164H70.5406V48.3389H67.0423V48.164C67.0423 48.164 67.0656 48.164 67.1123 48.164C67.1589 48.164 67.1822 48.164 67.1822 48.164C67.4154 48.164 67.6603 48.094 67.9169 47.9541C68.1734 47.8025 68.3833 47.5459 68.5466 47.1844H69.8059ZM73.0944 37.3717L73.1293 39.4707L69.3337 48.2864H68.0393L72.1323 39.4882C72.1556 39.4182 72.2081 39.2957 72.2897 39.1208C72.3714 38.9343 72.4588 38.7302 72.5521 38.5086C72.6454 38.2754 72.7329 38.0597 72.8145 37.8614C72.8961 37.6515 72.9428 37.4883 72.9544 37.3717H73.0944ZM74.6161 44.9105V45.5927H70.1558V44.9105H74.6161ZM74.8785 47.1844H77.7646C77.9395 47.5459 78.1552 47.8025 78.4118 47.9541C78.6683 48.094 78.9132 48.164 79.1464 48.164C79.1464 48.164 79.1697 48.164 79.2164 48.164C79.263 48.164 79.2864 48.164 79.2864 48.164V48.3389H74.1438V48.164H74.2838C74.482 48.164 74.6628 48.0823 74.826 47.9191C74.9893 47.7442 75.0068 47.4993 74.8785 47.1844ZM88.8608 37.844V44.4383C88.8608 45.5111 89.1057 46.3507 89.5954 46.957C90.0968 47.5634 90.7907 47.8666 91.6769 47.8666C92.5981 47.8666 93.3095 47.5809 93.8109 47.0095C94.324 46.4381 94.5863 45.6452 94.598 44.6307V37.844H95.7524V44.5257C95.7524 45.7734 95.3676 46.7588 94.598 47.4818C93.84 48.2048 92.7614 48.5663 91.3621 48.5663C89.6712 48.5663 88.4118 48.2106 87.5839 47.4993C86.756 46.7763 86.342 45.7909 86.342 44.5432V37.844H88.8608ZM86.377 37.844V38.7535H86.342C86.3303 38.532 86.2487 38.3512 86.0971 38.2113C85.9455 38.0713 85.7589 38.0014 85.5374 38.0014C85.5374 38.0014 85.4966 38.0014 85.4149 38.0014C85.3333 38.0014 85.2925 38.0014 85.2925 38.0014V37.844H86.377ZM89.8928 37.844V38.0014C89.8928 38.0014 89.852 38.0014 89.7703 38.0014C89.6887 38.0014 89.6479 38.0014 89.6479 38.0014C89.4263 38.0014 89.2398 38.0713 89.0882 38.2113C88.9366 38.3512 88.8608 38.532 88.8608 38.7535H88.8258V37.844H89.8928ZM94.633 37.844V38.7535H94.598C94.5863 38.532 94.5047 38.3512 94.3531 38.2113C94.2015 38.0713 94.0208 38.0014 93.8109 38.0014C93.8109 38.0014 93.7701 38.0014 93.6884 38.0014C93.6068 38.0014 93.566 38.0014 93.566 38.0014V37.844H94.633ZM96.7844 37.844V38.0014C96.7844 38.0014 96.7436 38.0014 96.662 38.0014C96.592 38.0014 96.557 38.0014 96.557 38.0014C96.3355 38.0014 96.1431 38.0713 95.9798 38.2113C95.8282 38.3512 95.7524 38.532 95.7524 38.7535H95.7175V37.844H96.7844ZM108.015 37.844H109.904C110.383 37.844 110.849 37.8964 111.304 38.0014C111.759 38.0947 112.167 38.2521 112.528 38.4736C112.89 38.6835 113.175 38.9751 113.385 39.3482C113.607 39.7097 113.718 40.1645 113.718 40.7126C113.718 41.1207 113.63 41.5288 113.455 41.937C113.292 42.3334 113.03 42.6774 112.668 42.969C112.318 43.2605 111.858 43.4529 111.286 43.5462C111.624 43.6511 111.945 43.8552 112.248 44.1584C112.563 44.4616 112.808 44.7473 112.983 45.0155C113.03 45.1088 113.111 45.2604 113.228 45.4703C113.344 45.6685 113.49 45.9017 113.665 46.1699C113.852 46.4265 114.044 46.6947 114.242 46.9745C114.476 47.2894 114.68 47.5343 114.855 47.7092C115.029 47.8724 115.21 47.989 115.397 48.059C115.583 48.129 115.799 48.164 116.044 48.164V48.3389H114.575C113.945 48.3389 113.409 48.2922 112.965 48.1989C112.534 48.1056 112.155 47.9366 111.829 47.6917C111.514 47.4351 111.222 47.0911 110.954 46.6597C110.849 46.5081 110.738 46.3273 110.622 46.1174C110.505 45.8959 110.388 45.6743 110.272 45.4528C110.155 45.2312 110.05 45.0155 109.957 44.8056C109.875 44.5957 109.817 44.4208 109.782 44.2808C109.63 43.9077 109.455 43.6395 109.257 43.4762C109.071 43.3013 108.896 43.2138 108.733 43.2138V43.0564C108.733 43.0564 108.773 43.0564 108.855 43.0564C108.937 43.0564 109.042 43.0564 109.17 43.0564C109.415 43.0564 109.654 43.0156 109.887 42.934C110.132 42.8407 110.353 42.6716 110.552 42.4267C110.75 42.1702 110.896 41.797 110.989 41.3073C111.012 41.2373 111.03 41.1382 111.041 41.0099C111.065 40.8816 111.071 40.7359 111.059 40.5726C111.036 40.1412 110.954 39.7972 110.814 39.5406C110.686 39.2724 110.522 39.0742 110.324 38.9459C110.126 38.806 109.922 38.7127 109.712 38.6661C109.514 38.6077 109.339 38.5786 109.187 38.5786C108.966 38.5669 108.762 38.5669 108.575 38.5786C108.4 38.5786 108.266 38.5728 108.173 38.5611C108.161 38.5611 108.144 38.5028 108.12 38.3862C108.097 38.2579 108.074 38.1355 108.05 38.0189C108.027 37.9023 108.015 37.844 108.015 37.844ZM108.19 37.844V48.3389H105.654V37.844H108.19ZM105.706 47.2369L105.776 48.3389H104.517V48.164C104.529 48.164 104.558 48.164 104.605 48.164C104.663 48.164 104.704 48.164 104.727 48.164C104.983 48.164 105.199 48.0765 105.374 47.9016C105.561 47.715 105.66 47.4934 105.671 47.2369H105.706ZM105.706 38.9284H105.671C105.66 38.6602 105.561 38.4445 105.374 38.2812C105.199 38.1063 104.989 38.0189 104.744 38.0189C104.709 38.0189 104.663 38.0189 104.605 38.0189C104.558 38.0189 104.529 38.0189 104.517 38.0189V37.844H105.776L105.706 38.9284ZM108.155 47.2369H108.19C108.19 47.5284 108.289 47.7558 108.488 47.9191C108.698 48.0823 108.919 48.164 109.152 48.164C109.152 48.164 109.176 48.164 109.222 48.164C109.269 48.164 109.304 48.164 109.327 48.164V48.3389H108.068L108.155 47.2369ZM127.864 37.3717L133.041 48.2514H130.085L126.832 40.5726L127.864 37.3717ZM124.576 47.1844C124.447 47.4993 124.465 47.7442 124.628 47.9191C124.791 48.0823 124.972 48.164 125.17 48.164H125.31V48.3389H121.812V48.164C121.812 48.164 121.835 48.164 121.882 48.164C121.929 48.164 121.952 48.164 121.952 48.164C122.185 48.164 122.43 48.094 122.687 47.9541C122.943 47.8025 123.153 47.5459 123.316 47.1844H124.576ZM127.864 37.3717L127.899 39.4707L124.103 48.2864H122.809L126.902 39.4882C126.925 39.4182 126.978 39.2957 127.059 39.1208C127.141 38.9343 127.228 38.7302 127.322 38.5086C127.415 38.2754 127.503 38.0597 127.584 37.8614C127.666 37.6515 127.712 37.4883 127.724 37.3717H127.864ZM129.386 44.9105V45.5927H124.925V44.9105H129.386ZM129.648 47.1844H132.534C132.709 47.5459 132.925 47.8025 133.181 47.9541C133.438 48.094 133.683 48.164 133.916 48.164C133.916 48.164 133.939 48.164 133.986 48.164C134.033 48.164 134.056 48.164 134.056 48.164V48.3389H128.913V48.164H129.053C129.252 48.164 129.432 48.0823 129.596 47.9191C129.759 47.7442 129.776 47.4993 129.648 47.1844ZM141.779 37.5991L152.047 46.6247L152.222 48.5663L141.972 39.5406L141.779 37.5991ZM141.849 47.2719V48.3389H140.555V48.164C140.555 48.164 140.602 48.164 140.695 48.164C140.788 48.164 140.835 48.164 140.835 48.164C141.103 48.164 141.331 48.0823 141.517 47.9191C141.704 47.7442 141.797 47.5284 141.797 47.2719H141.849ZM144.193 47.2719C144.205 47.5284 144.304 47.7442 144.491 47.9191C144.677 48.0823 144.899 48.164 145.155 48.164C145.155 48.164 145.202 48.164 145.295 48.164C145.4 48.164 145.453 48.164 145.453 48.164V48.3389H144.158V47.2719H144.193ZM141.779 37.5991L144.193 40.2228V48.3389H141.797V39.5931C141.797 38.9984 141.768 38.5203 141.71 38.1588C141.651 37.7856 141.622 37.5991 141.622 37.5991H141.779ZM152.204 37.844V46.5197C152.204 46.9279 152.216 47.2894 152.239 47.6042C152.274 47.9074 152.304 48.1465 152.327 48.3214C152.362 48.4846 152.379 48.5663 152.379 48.5663H152.222L149.808 45.7851V37.844H152.204ZM152.152 38.9109V37.844H153.464V38.0189C153.464 38.0189 153.411 38.0189 153.306 38.0189C153.213 38.0189 153.166 38.0189 153.166 38.0189C152.91 38.0189 152.683 38.1063 152.484 38.2812C152.298 38.4445 152.204 38.6544 152.204 38.9109H152.152ZM149.808 38.9109C149.796 38.6544 149.697 38.4445 149.511 38.2812C149.336 38.1063 149.114 38.0189 148.846 38.0189C148.846 38.0189 148.794 38.0189 148.689 38.0189C148.595 38.0189 148.549 38.0189 148.549 38.0189V37.844H149.843V38.9109H149.808ZM166.972 37.8964V48.3389H164.436V37.8964H166.972ZM170.786 37.8265V38.5261H160.641V37.8265H170.786ZM170.786 38.4736V40.3277H170.593V40.1703C170.605 39.6689 170.465 39.2724 170.173 38.9809C169.894 38.6894 169.503 38.5378 169.001 38.5261V38.4736H170.786ZM170.786 37.5641V38.0014L168.932 37.8265C169.153 37.8265 169.392 37.8148 169.649 37.7915C169.905 37.7565 170.138 37.7215 170.348 37.6865C170.558 37.6399 170.704 37.5991 170.786 37.5641ZM164.471 47.2369V48.3389H163.299V48.164C163.299 48.164 163.328 48.164 163.387 48.164C163.457 48.164 163.492 48.164 163.492 48.164C163.748 48.164 163.964 48.0765 164.139 47.9016C164.325 47.715 164.425 47.4934 164.436 47.2369H164.471ZM166.92 47.2369H166.972C166.972 47.4934 167.066 47.715 167.252 47.9016C167.439 48.0765 167.666 48.164 167.934 48.164C167.934 48.164 167.964 48.164 168.022 48.164C168.092 48.164 168.127 48.164 168.127 48.164V48.3389H166.92V47.2369ZM162.425 38.4736V38.5261C161.912 38.5378 161.515 38.6894 161.235 38.9809C160.967 39.2724 160.833 39.6689 160.833 40.1703V40.3277H160.641V38.4736H162.425ZM160.641 37.5641C160.745 37.5874 160.897 37.6224 161.095 37.669C161.305 37.7157 161.533 37.7565 161.777 37.7915C162.034 37.8148 162.267 37.8265 162.477 37.8265L160.641 38.0014V37.5641Z" fill="#151515"/>
</svg>
